<?xml version="1.0" encoding="utf-8"?>
<!-- Generator: Adobe Illustrator 24.0.1, SVG Export Plug-In . SVG Version: 6.00 Build 0)  -->
<svg version="1.1" id="Camada_1" xmlns="http://www.w3.org/2000/svg" xmlns:xlink="http://www.w3.org/1999/xlink" x="0px" y="0px"
	 viewBox="0 0 839.7 200" style="enable-background:new 0 0 839.7 200;" xml:space="preserve">
<style type="text/css">
	.st0{fill:#FFFFFF;}
	.st1{fill:#DA0019;}
</style>
<title>AASP</title>
<circle class="st0" cx="100" cy="100" r="100"/>
<path class="st0" d="M301.8,48.1c1.7-4.3,3.6-9,3.6-12.8c0-6.2-6.4-8.3-18.3-11.1v-4h40.8l61.2,159.8h-23L346.2,127h-59.9
	l-18.8,52.9h-15L301.8,48.1z M289.7,117.7h53.9l-26.8-72.4L289.7,117.7z"/>
<path class="st0" d="M469.9,48.1c1.7-4.3,3.6-9,3.6-12.8c0-6.2-6.4-8.3-18.3-11.1v-4H496l61.2,159.7h-23l-19.9-52.9h-59.8
	l-18.8,52.9h-15L469.9,48.1z M457.7,117.7h53.9l-26.8-72.4L457.7,117.7z"/>
<path class="st0" d="M675.7,37.9c-7.3-3.3-22.5-9.7-39.2-9.7c-17.1,0-28.7,9.3-28.7,23.7c0,37.5,78.3,32.8,78.3,84.7
	c0,32.8-27.1,45.8-57.7,45.8c-16.6,0-34-3.8-38-4.8v-16.4c8.8,4.3,25.2,10.4,41.3,10.4c20.9,0,33.2-10,33.2-30.1
	c0-40.1-76.2-34.2-76.2-84c0-25.9,20.2-40.1,51.8-40.1c11.8,0.1,23.6,1.3,35.1,3.8L675.7,37.9z"/>
<path class="st0" d="M741.4,45.3c0-14.5-3.3-18-23.7-21.1v-4h57.5c28.7,0,64.6,0,64.6,41.5c0,41.3-38,41.3-66.9,41.3h-10.7v76.9
	h-20.7V45.3z M762.1,93.7h10.2c22.1,0,44.2-1.4,44.2-32c0-23.5-13-32.3-34.2-32.3c-19,0-20.2,2.1-20.2,15.9L762.1,93.7z"/>
<polygon class="st1" points="137.6,95.8 106.3,150 186.6,150 100,0 13.4,150 93.7,150 62.4,95.8 55.1,108.5 71.8,137.4 35.3,137.4 
	93.7,36.2 93.7,144.5 100,155.5 106.3,144.5 106.3,36.2 164.7,137.4 128.2,137.4 144.9,108.5 "/>
</svg>
