<?xml version="1.0" encoding="UTF-8"?> <svg xmlns="http://www.w3.org/2000/svg" width="146" height="35" viewBox="0 0 146 35" fill="none"><path d="M52.4625 8.4443C52.7518 7.69814 53.081 6.86827 53.081 6.2022C53.081 5.11027 51.9669 4.74629 49.9014 4.25128V3.54517H57.0022L67.6553 31.4986H63.6509L60.1674 22.2354H49.7784L46.5228 31.4986H43.9219L52.4625 8.4443ZM50.3572 20.6157H59.7261L55.0633 7.94565L50.3572 20.6157Z" fill="#D9001A"></path><path d="M81.691 8.4443C81.9803 7.69814 82.3095 6.86827 82.3095 6.2022C82.3095 5.11027 81.1954 4.74629 79.1335 4.25128V3.54517H86.2343L96.8838 31.4986H92.8794L89.414 22.2354H79.0069L75.7513 31.4986H73.1504L81.691 8.4443ZM79.5857 20.6157H88.9582L84.2918 7.94565L79.5857 20.6157Z" fill="#D9001A"></path><path d="M117.484 6.66081C116.207 6.07845 113.563 4.9574 110.673 4.9574C107.703 4.9574 105.677 6.5771 105.677 9.11037C105.677 15.662 119.304 14.843 119.304 23.9388C119.304 29.6714 114.601 31.9463 109.269 31.9463C107.045 31.8999 104.831 31.6218 102.664 31.1164V28.2483C104.194 28.9981 107.041 30.0682 109.848 30.0682C113.465 30.0682 115.636 28.3247 115.636 24.7941C115.636 17.773 102.382 18.814 102.382 10.0895C102.382 5.5616 105.891 3.06836 111.382 3.06836C113.436 3.07899 115.483 3.30219 117.492 3.73444L117.484 6.66081Z" fill="#D9001A"></path><path d="M128.922 7.94565C128.922 5.39781 128.344 4.78997 124.795 4.25128V3.54517H134.786C139.782 3.54517 146 3.54517 146 10.8247C146 18.1042 139.395 18.0533 134.356 18.0533H132.514V31.5204H128.922V7.94565ZM132.514 16.4227H134.29C138.128 16.4227 141.967 16.1715 141.967 10.8138C141.967 6.70084 139.698 5.16487 136.023 5.16487C132.721 5.16487 132.514 5.52884 132.514 7.94565V16.4227Z" fill="#D9001A"></path><path d="M17.3705 0.0218377L32.4332 26.2718H18.4702L23.8962 16.8084L25.1659 19.0178L22.272 24.0771H28.6241L18.4702 6.35139V25.3073L17.385 27.2218L16.2998 25.3073V6.35139L6.14226 24.0552H12.4943L9.60046 18.9959L10.8665 16.7866L16.2926 26.25H2.32958L17.3886 0C12.7765 0.000965195 8.35368 1.84513 5.09279 5.12691C1.83189 8.4087 -9.97557e-08 12.8593 0 17.5C-9.97557e-08 22.1407 1.83189 26.5913 5.09279 29.8731C8.35368 33.1549 12.7765 34.999 17.3886 35C22.0013 35 26.4251 33.1563 29.6868 29.8744C32.9485 26.5925 34.7808 22.1413 34.7808 17.5C34.7808 12.8587 32.9485 8.40752 29.6868 5.12563C26.4251 1.84374 22.0013 0 17.3886 0" fill="#D9001A"></path></svg> 